<svg width="152" height="147" viewBox="0 0 152 147" fill="none" xmlns="http://www.w3.org/2000/svg">
<path fill-rule="evenodd" clip-rule="evenodd" d="M41.0128 0.26001C38.0149 0.768015 35.6275 2.4845 34.2332 5.13484C33.4893 6.54824 33.437 6.91775 33.3396 11.4281L33.2362 16.2196L27.6895 16.3302C21.0731 16.4619 19.9566 16.8021 17.562 19.4168C15.5523 21.6116 15.1591 22.9441 15.1591 27.5636V31.3331L10.9245 31.4553C7.05743 31.5671 6.55789 31.6457 5.1719 32.3616C4.33716 32.7928 3.05785 33.8076 2.3289 34.6166C-0.192576 37.4156 0.00355466 32.821 0.00355466 89.0598C0.00355466 144.128 -0.116798 140.645 1.8772 143.254C2.93987 144.645 4.61828 145.895 6.23666 146.501C7.08002 146.817 14.4055 146.911 43.8159 146.983C65.536 147.036 81.1649 146.96 82.3637 146.794C85.9345 146.3 88.453 144.505 89.8491 141.458C90.3667 140.329 90.4966 139.375 90.5863 136.044L90.6954 131.999L94.6049 131.857C97.2328 131.761 98.9721 131.548 99.91 131.208C101.847 130.505 103.822 128.672 104.813 126.658C105.6 125.059 105.653 124.7 105.752 120.315L105.857 115.667L111.398 115.568C116.458 115.477 117.074 115.408 118.492 114.77C119.347 114.386 120.596 113.476 121.268 112.749C123.166 110.693 123.706 109.179 123.864 105.46L123.999 102.267L127.65 105.813C132.36 110.387 133.517 111.021 137.147 111.016C140.856 111.012 141.877 110.465 146.402 106.053C151.042 101.53 151.974 99.9361 151.992 96.4936C152.016 92.1212 152.581 92.851 137.405 77.6547L123.923 64.1542V44.3799C123.923 29.6119 123.832 24.4079 123.565 23.8237C123.241 23.1125 118.915 19.3376 102.378 5.33116C98.7953 2.29678 96.3517 0.442986 95.6917 0.25823C94.4572 -0.0872606 43.0522 -0.0854814 41.0128 0.26001ZM92.1803 13.0865C92.2722 19.8382 92.2906 20.0165 93.0647 21.6644C94.122 23.9153 95.985 25.8696 98.0268 26.8705L99.7035 27.692L108.767 27.8403L117.831 27.9886L117.908 42.8906C117.95 51.0869 117.882 57.7927 117.758 57.7927C117.632 57.7927 113.118 53.3793 107.725 47.9852C100.058 40.3156 97.5641 37.9977 96.286 37.3509C93.2754 35.8284 74.7797 28.9494 73.6905 28.9473C72.0835 28.9447 70.7652 29.7744 70.1183 31.1961C69.808 31.8785 69.551 32.6822 69.5474 32.982C69.54 33.5917 77.2111 53.8482 78.1894 55.8025C78.6072 56.6373 85.3057 63.5412 98.3968 76.6292L117.979 96.2074V101.476C117.979 105.43 117.871 107.003 117.544 107.783C116.737 109.711 116.942 109.69 98.5014 109.69H81.9762L81.1076 110.557C80.1801 111.483 79.9391 113.025 80.545 114.155C81.2743 115.515 82.0511 115.622 91.2478 115.622H99.9091L99.8063 119.768L99.7035 123.915L98.732 124.884L97.7606 125.853H60.5328C25.1669 125.853 23.2641 125.826 22.4876 125.319C22.0383 125.024 21.5426 124.449 21.3863 124.039C20.923 122.823 21.0172 24.9144 21.4826 23.985C22.232 22.488 23.4584 22.1908 28.5317 22.2762L33.1378 22.3539L33.2864 65.6515L33.435 108.949L34.0736 110.328C34.8884 112.087 36.6435 113.838 38.5097 114.755C39.9409 115.458 40.1611 115.475 48.6743 115.568L57.376 115.662L58.4066 114.634C59.5379 113.505 59.7076 112.555 59.0167 111.222C58.2696 109.78 57.7888 109.703 49.0859 109.62L40.9631 109.542L40.0966 108.574L39.2297 107.605V58.07C39.2297 4.88811 39.1617 7.37179 40.6413 6.51177C40.9833 6.31307 49.882 6.20631 66.6239 6.20038L92.0861 6.19148L92.1803 13.0865ZM105.64 15.9592L112.467 21.7608L107.008 21.8418C100.637 21.9364 99.9115 21.7341 98.7495 19.5411C98.1314 18.3747 98.069 17.8655 98.069 13.9862C98.069 10.6491 98.1502 9.76353 98.4405 9.93642C98.6449 10.0583 101.884 12.7686 105.64 15.9592ZM47.5505 13.6375C45.6233 14.3919 45.1425 16.8827 46.6361 18.3732L47.5047 19.2401H65.3805H83.2564L84.125 18.3732C85.6477 16.8537 85.1244 14.3157 83.1467 13.6277C81.9483 13.2107 48.6167 13.2199 47.5505 13.6375ZM47.1864 28.006C45.4902 28.9248 45.2186 31.1935 46.6361 32.608L47.5047 33.4749H54.0882H60.6716L61.5402 32.608C62.9215 31.2296 62.5821 28.8447 60.8799 27.9663C59.6779 27.3462 48.3445 27.3788 47.1864 28.006ZM84.9936 39.2495C89.1614 40.8281 92.6692 42.2136 92.7886 42.3287C92.9081 42.444 90.8065 44.7296 88.1189 47.4081C85.4311 50.0866 83.1794 52.218 83.1149 52.1442C83.0505 52.0703 81.7203 48.6735 80.159 44.5958C78.598 40.5182 77.2188 36.9265 77.0949 36.6143C76.9645 36.2866 76.9847 36.1169 77.1424 36.213C77.2928 36.3047 80.8259 37.6709 84.9936 39.2495ZM15.1591 80.8715C15.1591 120.075 15.2067 124.552 15.6364 125.811C16.286 127.713 18.6098 130.191 20.5765 131.078L22.1426 131.784L53.4442 131.865L84.7458 131.946L84.6468 135.523L84.5479 139.1L83.5773 139.964L82.6068 140.829L45.2426 140.82C16.3329 140.813 7.7745 140.729 7.41909 140.449C7.16649 140.25 6.73174 139.758 6.45329 139.354C5.98109 138.671 5.94692 135.282 5.94692 89.2955C5.94692 45.8482 6.00041 39.8663 6.39653 39.1024C7.14242 37.6629 8.0892 37.3554 11.816 37.342L15.1591 37.3302V80.8715ZM46.6361 42.6454C45.7086 43.5709 45.4676 45.1133 46.0735 46.2432C46.7936 47.586 47.6337 47.7097 56.0346 47.7097H63.9541L64.9645 46.7014C65.6052 46.062 65.9749 45.4055 65.9749 44.9072C65.9749 43.8939 65.2358 42.474 64.5054 42.084C64.1529 41.8957 60.7848 41.7785 55.7193 41.7785H47.5047L46.6361 42.6454ZM114.485 63.0545L131.053 79.5859L125.781 84.8528L120.509 90.1197L103.792 73.4391L87.0759 56.7589L92.1979 51.6412C95.0147 48.8266 97.4545 46.5235 97.6191 46.5235C97.7837 46.5235 105.374 53.9624 114.485 63.0545ZM46.5368 56.9259C45.1238 58.6014 45.7086 60.8929 47.7469 61.6661C48.1516 61.8197 52.9708 61.9442 58.4907 61.9439C67.4254 61.9436 68.6125 61.8879 69.5409 61.425C71.3367 60.5297 71.6686 58.2177 70.2101 56.7619L69.4598 56.0134H58.3831H47.3062L46.5368 56.9259ZM48.4954 69.5608C47.9525 69.8277 47.1502 70.5148 46.7124 71.0877L45.916 72.1295V79.1743C45.916 85.8267 45.9502 86.2644 46.5288 87.0378C46.8658 87.4883 47.5106 88.1318 47.9617 88.4681C48.7626 89.0651 49.1552 89.0817 64.4302 89.1615C75.2516 89.2181 80.3201 89.1434 80.8624 88.9192C81.9509 88.4693 83.3625 86.9032 83.7651 85.6992C84.1919 84.4231 84.2127 74.3644 83.7919 72.8523C83.3984 71.4386 82.1679 69.9822 80.9311 69.4664C80.1537 69.1423 76.9321 69.0634 64.7214 69.0688C51.2205 69.0747 49.3694 69.1307 48.4954 69.5608ZM78.1588 79.1449V83.2968H64.9348H51.7108V79.1449V74.9931H64.9348H78.1588V79.1449ZM140.625 89.1538C144.971 93.5206 145.899 94.6028 146.066 95.504C146.176 96.1016 146.17 96.9023 146.051 97.2834C145.791 98.1223 139.849 104.234 138.722 104.823C137.697 105.358 136.589 105.356 135.572 104.817C135.13 104.584 132.497 102.115 129.721 99.3311L124.672 94.2694L129.866 89.0797C132.723 86.2253 135.133 83.8899 135.223 83.8899C135.312 83.8899 137.743 86.2588 140.625 89.1538ZM47.1864 96.8077C45.4902 97.7264 45.2186 99.9951 46.6361 101.41L47.5047 102.277H72.7729C91.7304 102.277 98.2357 102.188 98.8203 101.922C99.2488 101.727 99.7899 101.2 100.023 100.751C100.713 99.4189 100.548 98.4631 99.436 97.3536L98.4256 96.3453L73.2109 96.3572C51.5379 96.3673 47.8824 96.4308 47.1864 96.8077ZM67.735 110.557C66.8075 111.483 66.5665 113.025 67.1725 114.155C67.5632 114.884 68.9861 115.622 70.0015 115.622C71.0627 115.622 72.8097 113.875 72.8097 112.814C72.8097 110.064 69.6413 108.655 67.735 110.557Z" fill="white"/>
</svg>
