<svg width="100" height="100" viewBox="0 0 152 152" fill="none" xmlns="http://www.w3.org/2000/svg">
<path fill-rule="evenodd" clip-rule="evenodd" d="M69.0487 0.284773C37.7299 3.19813 11.516 25.0397 2.8496 55.4419C1.06738 61.6943 0.00208202 69.442 3.11002e-06 76.169C-0.00504568 93.0797 6.13725 110.41 16.8362 123.673C19.9472 127.529 26.3787 133.779 30.1552 136.617C55.4612 155.63 89.7582 157.151 116.343 140.44C122.842 136.354 130.231 129.826 134.986 123.97C140.058 117.721 144.948 109.065 147.554 101.72C155.391 79.6322 152.772 55.2702 140.451 35.6636C128.899 17.2816 109.885 4.56659 88.6499 1.02381C82.5364 0.00407128 75.0876 -0.276928 69.0487 0.284773ZM82.1161 6.19674C90.7597 6.98924 98.6414 9.19772 106.469 13.0206C124.611 21.8807 138.004 37.8982 143.588 57.4134C144.165 59.4315 145.523 65.9482 145.523 66.7024C145.523 66.7603 143.901 66.7704 141.919 66.7246L138.315 66.6412L137.62 63.1893C137.237 61.2909 136.467 58.3413 135.908 56.6345C127.115 29.787 101.619 11.9673 73.652 13.1222C57.4885 13.7896 43.0317 20.129 31.6004 31.5627C22.5993 40.5653 16.8876 51.1307 14.4036 63.3738L13.7407 66.6412L10.1368 66.7246C8.15468 66.7704 6.53284 66.7603 6.53284 66.7024C6.53284 65.8724 7.91709 59.3563 8.5972 56.9836C17.8341 24.7676 49.0992 3.16961 82.1161 6.19674ZM81.7134 19.2777C103.212 21.4527 121.298 35.2032 129.179 55.365C130.383 58.445 131.645 62.8997 132.015 65.3788L132.226 66.7897H76.0618C22.7674 66.7897 19.8976 66.7633 19.9038 66.2699C19.9175 65.1477 21.1262 60.3353 22.1487 57.3302C27.3665 41.9959 39.1976 29.4665 54.3018 23.2791C62.9682 19.7292 72.4685 18.3424 81.7134 19.2777ZM74.3921 27.1C74.0832 27.326 72.955 28.8278 71.8852 30.4378L69.9397 33.3648L66.5296 34.3103C62.626 35.3927 61.7725 36.0429 61.7725 37.935C61.7725 38.8758 62.1206 39.4832 64.018 41.8542L66.2635 44.6603L66.1712 48.5705C66.0821 52.3402 66.1044 52.5081 66.7845 53.2337C67.9911 54.5211 68.8652 54.5021 72.6277 53.1075L76.0279 51.8475L79.4281 53.1075C83.1906 54.5021 84.0647 54.5211 85.2713 53.2337C85.952 52.5075 85.9737 52.3429 85.8811 48.5643L85.7851 44.6472L88.0342 41.8459C89.9349 39.4782 90.2833 38.8722 90.2833 37.933C90.2833 36.0402 89.4161 35.3769 85.519 34.2874L82.1161 33.3363L80.1706 30.4235C77.9375 27.0801 77.5042 26.6895 76.0279 26.6895C75.4369 26.6895 74.7007 26.8742 74.3921 27.1ZM77.1986 36.762C78.1401 38.2291 79.1053 38.8273 81.2923 39.2993L82.2507 39.5064L81.0696 41.0706C79.9458 42.5593 79.8887 42.7391 79.8887 44.7862C79.8887 46.3908 79.7943 46.8988 79.5175 46.7847C79.3135 46.7007 78.4445 46.398 77.5871 46.1116C76.1016 45.6162 75.9542 45.6162 74.4687 46.1116C73.6113 46.398 72.7426 46.7007 72.5383 46.7847C72.2615 46.8988 72.1671 46.3908 72.1671 44.7862C72.1671 42.7391 72.11 42.5593 70.9862 41.0706L69.8051 39.5064L70.7635 39.2993C72.9505 38.8273 73.9157 38.2291 74.8572 36.762C75.3719 35.96 75.8987 35.3036 76.0279 35.3036C76.1571 35.3036 76.6839 35.96 77.1986 36.762ZM44.4816 36.4796C44.0747 36.7998 43.1731 37.9347 42.4778 39.002C41.4188 40.6277 41.0267 40.991 40.0592 41.242C39.4242 41.4065 38.3874 41.6757 37.7554 41.8393C36.1502 42.2558 35.0992 43.1712 34.8791 44.3448C34.6572 45.5265 34.9346 46.1176 36.8446 48.534L38.263 50.3284L38.0967 52.7534C37.9027 55.5821 38.2734 56.7994 39.5255 57.4469C40.6989 58.0538 41.2127 57.9985 43.8906 56.9755L46.2546 56.0728L48.5269 56.9755C51.0275 57.9691 51.5817 58.0437 52.6963 57.5357C54.0719 56.909 54.382 56.0413 54.3249 52.9807L54.2727 50.1855L55.8241 48.2358C58.7266 44.5875 58.1255 42.7527 53.6401 41.5675L51.1213 40.9022L49.8437 38.9408C49.1407 37.862 48.3047 36.7359 47.9855 36.4386C47.2097 35.7156 45.426 35.7367 44.4816 36.4796ZM104.07 36.4386C103.751 36.7359 102.915 37.862 102.212 38.9408L100.934 40.9022L98.4157 41.5675C93.9303 42.7527 93.3292 44.5875 96.2317 48.2358L97.7831 50.1855L97.7308 52.9807C97.6738 56.0413 97.9839 56.909 99.3595 57.5357C100.474 58.0437 101.028 57.9691 103.529 56.9755L105.801 56.0728L108.165 56.9755C110.843 57.9985 111.357 58.0538 112.53 57.4469C113.781 56.8 114.153 55.5815 113.96 52.7626L113.794 50.3468L115.406 48.2863C117.188 46.008 117.498 45.2271 117.097 44.0229C116.707 42.8543 115.688 42.2148 113.093 41.509C110.807 40.8879 110.806 40.8867 109.56 38.9747C108.875 37.9226 107.981 36.7998 107.574 36.4796C106.63 35.7367 104.846 35.7156 104.07 36.4386ZM48.4998 46.294C49.2313 46.294 49.4059 46.8718 48.8574 47.4777C48.5827 47.7816 48.286 48.5658 48.1981 49.2201C48.0454 50.3596 48.0056 50.3979 47.2697 50.1178C46.5492 49.8439 45.8454 49.9039 44.7233 50.3346C44.3506 50.4775 44.2502 50.3121 44.2502 49.554C44.2502 49.025 43.9752 48.1466 43.639 47.6028L43.0278 46.6133L44.0474 46.1874C44.6084 45.953 45.3135 45.4347 45.6146 45.0355L46.1617 44.3098L47.0972 45.3019C47.6118 45.8476 48.2429 46.294 48.4998 46.294ZM108.021 46.1927L109.028 46.6133L108.417 47.6028C108.081 48.1466 107.806 49.025 107.806 49.554C107.806 50.3121 107.705 50.4775 107.332 50.3346C106.21 49.9039 105.507 49.8439 104.786 50.1178C104.05 50.3979 104.01 50.3596 103.858 49.2201C103.77 48.5658 103.486 47.7961 103.227 47.5101C102.569 46.7829 102.621 46.6555 103.773 46.1743C104.332 45.9408 105.015 45.405 105.291 44.9841L105.793 44.2183L106.403 44.9951C106.739 45.4225 107.467 45.9613 108.021 46.1927ZM146.025 77.8544C145.661 88.1343 143.76 96.2669 139.535 105.628L138.027 108.969H113.269H88.5109L87.5477 109.83C86.7506 110.542 86.5843 110.906 86.5843 111.94C86.5843 112.973 86.7506 113.337 87.5477 114.049L88.5109 114.91H103.119H117.727L116.553 116.135C111.483 121.424 103.129 126.781 95.6291 129.554C89.2017 131.929 83.6917 132.858 76.0279 132.858C68.36 132.858 62.8411 131.927 56.4267 129.551C48.9088 126.767 40.681 121.488 35.5031 116.126L34.3291 114.91H48.937H63.5449L64.5081 114.049C65.3052 113.337 65.4715 112.973 65.4715 111.94C65.4715 110.906 65.3052 110.542 64.5081 109.83L63.5449 108.969H38.794H14.0431L12.7019 106.073C8.46682 96.9267 6.39652 88.1685 6.03063 77.8544L5.84887 72.7305H76.0279H146.207L146.025 77.8544ZM23.8243 80.7517C20.8818 81.3716 18.0467 83.6737 16.5888 86.6271C16.0115 87.7966 15.8971 88.4943 15.8971 90.8499C15.8971 93.2054 16.0115 93.9031 16.5888 95.0726C17.682 97.287 19.42 99.041 21.5705 100.1C23.2253 100.914 23.8439 101.057 25.7871 101.072C27.3015 101.084 28.5313 100.911 29.4579 100.556C30.7029 100.079 30.9247 100.069 31.5368 100.461C33.6484 101.815 36.2316 100.584 36.2316 98.2247C36.2316 97.5879 36.0237 96.7496 35.7698 96.362C35.3507 95.7222 35.354 95.4994 35.8057 93.9453C36.5084 91.528 36.2761 88.4355 35.2322 86.301C33.2436 82.2357 28.2679 79.8155 23.8243 80.7517ZM41.2135 80.9166C40.7684 81.1581 40.2673 81.6119 40.0998 81.9247C39.919 82.2631 39.7954 85.0953 39.7954 88.909C39.7954 96.0059 39.9335 96.7161 41.6667 98.525C44.9716 101.975 50.424 101.969 53.7788 98.5117C55.5919 96.6433 55.8328 95.4774 55.8328 88.5739V82.5423L54.9721 81.579C54.2599 80.7817 53.8964 80.6154 52.8629 80.6154C51.8294 80.6154 51.4658 80.7817 50.7537 81.579L49.893 82.5423V88.2837C49.893 93.6943 49.858 94.057 49.2842 94.5762C48.5759 95.2175 46.8946 95.304 46.2083 94.7345C45.8082 94.4021 45.7349 93.5324 45.7334 89.1056C45.7316 83.0345 45.5009 81.8522 44.1579 81.0333C43.0365 80.3492 42.3115 80.3207 41.2135 80.9166ZM65.1879 80.8652C64.6975 81.0788 64.1374 81.4453 63.9429 81.68C63.7484 81.9143 62.2382 85.6442 60.5872 89.9682C57.3729 98.3866 57.2467 99.0368 58.5843 100.286C60.2386 101.83 62.5467 101.219 63.4609 98.9947L63.9999 97.6838L66.391 97.6829L68.7817 97.6817L69.425 99.0056C69.8212 99.8216 70.4321 100.518 71.0171 100.82C72.9006 101.795 75.1369 100.357 75.1369 98.173C75.1369 97.5353 69.9394 83.3256 69.2022 81.9482C68.9061 81.3951 67.1625 80.4452 66.4795 80.4651C66.2591 80.4716 65.6779 80.6516 65.1879 80.8652ZM80.5979 80.7333C80.2531 80.8788 79.685 81.3615 79.3357 81.8056C78.7216 82.5862 78.7008 82.8845 78.7008 90.8852V99.1574L79.5671 100.128C80.4156 101.078 80.4916 101.1 83.299 101.201C84.8755 101.258 86.609 101.222 87.1516 101.12C89.6076 100.659 90.5411 97.8938 88.8212 96.1737C88.0693 95.4216 87.7316 95.3054 86.2968 95.3054H84.6405V88.9238V82.5423L83.8238 81.6455C82.9471 80.6834 81.6116 80.3056 80.5979 80.7333ZM96.4532 80.9166C96.008 81.1581 95.507 81.6119 95.3395 81.9247C95.1521 82.2749 95.0351 85.7304 95.0351 90.9128C95.0351 100.331 95.0416 100.363 97.0766 100.973C98.0151 101.254 98.3679 101.227 99.168 100.813C100.833 99.9526 100.975 99.1675 100.975 90.8499C100.975 82.6035 100.824 81.7423 99.2309 80.9187C98.1273 80.3477 97.5019 80.3474 96.4532 80.9166ZM107.141 80.9184C106.364 81.3402 105.43 82.716 105.43 83.4384C105.43 83.6262 105.637 84.2158 105.889 84.7487C106.399 85.8225 107.379 86.3943 108.71 86.3943H109.587V92.7759V99.1574L110.448 100.121C111.609 101.421 113.347 101.483 114.562 100.268L115.379 99.4518L115.469 92.9229L115.559 86.3943H116.56C117.743 86.3943 119.233 85.2703 119.509 84.1697C119.778 83.0977 118.989 81.4605 117.941 80.9187C116.68 80.2667 108.343 80.2664 107.141 80.9184ZM122.952 80.7826C121.874 81.2056 121.184 82.2336 121.177 83.4289C121.171 84.2348 121.706 85.3044 123.514 88.1085L125.858 91.743L125.713 94.7865C125.531 98.6144 125.917 99.9639 127.426 100.773C128.669 101.439 129.789 101.266 130.803 100.252C131.418 99.6374 131.489 99.2311 131.63 95.5264L131.785 91.4736L134.051 87.9805C136.593 84.0607 136.81 83.1652 135.575 81.6969C133.926 79.7367 131.894 80.3115 130.045 83.2608C129.374 84.3307 128.783 85.2061 128.732 85.2061C128.68 85.2061 128.143 84.3916 127.538 83.3963C126.478 81.6503 125.067 80.4366 124.14 80.4734C123.895 80.4832 123.36 80.6222 122.952 80.7826ZM27.8354 86.9776C29.1517 87.5753 30.2889 89.0421 30.2906 90.145C30.2918 90.7174 30.1671 90.7628 28.9696 90.6277C27.7841 90.4943 27.5497 90.5763 26.7057 91.4205C25.8412 92.2851 25.7758 92.4848 25.9074 93.8556C26.0503 95.3408 26.0467 95.3479 25.2757 95.1581C21.1396 94.1393 20.3653 88.9604 24.0658 87.0626C25.6458 86.2523 26.21 86.2395 27.8354 86.9776ZM74.1833 109.83C73.3862 110.542 73.2199 110.906 73.2199 111.94C73.2199 114.908 77.2271 115.988 78.5746 113.382C79.4177 111.751 79.0004 110.184 77.5188 109.418C76.2272 108.75 75.2578 108.87 74.1833 109.83ZM28.0644 116.724C31.7013 121.156 38.26 126.719 43.7008 129.988C50.6319 134.151 58.6099 137.039 66.6271 138.285C70.7611 138.927 80.532 138.996 84.6405 138.411C100.057 136.217 114.376 128.222 124.482 116.164L125.547 114.894L129.939 114.976L134.331 115.059L132.055 118.08C127.985 123.482 121.702 129.561 116.27 133.35C106.981 139.831 96.5595 143.872 84.789 145.56C81.3297 146.055 70.7261 146.055 67.2668 145.56C53.995 143.657 42.5328 138.799 32.2222 130.705C28.0285 127.414 20.7844 119.634 18.2748 115.727L17.7501 114.91L22.1648 114.912L26.5795 114.914L28.0644 116.724Z" fill="white"/>
</svg>
