<svg width="100" height="100" viewBox="0 0 152 152" fill="none" xmlns="http://www.w3.org/2000/svg">
<path fill-rule="evenodd" clip-rule="evenodd" d="M74.9272 0.252027C74.5823 0.391433 74.0079 0.877424 73.6506 1.33161C73.0167 2.13803 73.0037 2.33183 73.0898 9.52449L73.1783 16.891L73.9951 17.7079C75.1354 18.8481 76.8652 18.8481 78.0049 17.7076L78.8217 16.8901V9.29264V1.69543L77.8516 0.828082C76.8694 -0.0502682 76.0662 -0.208401 74.9272 0.252027ZM108.227 12.5801C107.737 12.7974 104.496 15.8391 101.024 19.3394C95.045 25.3684 94.7123 25.7628 94.7123 26.8255C94.7123 28.4609 95.9987 29.6849 97.7179 29.6849C98.9719 29.6849 99.0604 29.6118 105.189 23.5172C108.6 20.125 111.581 16.9882 111.814 16.5468C112.451 15.3374 112.327 14.3333 111.42 13.3699C110.422 12.3096 109.405 12.0582 108.227 12.5801ZM41.269 13.5596C40.4098 14.3576 40.2535 14.8092 40.3233 16.2921C40.3664 17.2058 51.5985 28.6467 53.0807 29.2866C55.0594 30.1409 56.9907 28.7682 56.9907 26.5077C56.9907 25.4492 56.6577 25.0572 50.6712 19.0663C44.7157 13.106 44.2886 12.7421 43.2505 12.7421C42.4601 12.7421 41.9002 12.9731 41.269 13.5596ZM74.0679 23.8631C73.1314 24.8004 72.8733 25.9138 73.3342 27.0273C73.8237 28.21 74.7041 28.7932 76 28.7932C77.2959 28.7932 78.1763 28.21 78.6658 27.0273C79.4472 25.1401 78.0774 23.1456 76 23.1456C75.1116 23.1456 74.5921 23.3385 74.0679 23.8631ZM73.3595 35.3872C64.5754 36.1273 56.3788 41.9001 52.4433 50.1188C51.8825 51.2894 51.3478 52.5384 51.2549 52.8942C51.0954 53.5041 50.9962 53.4631 49.5268 52.1769C46.1194 49.1938 42.5061 47.8179 37.5067 47.5997C32.7716 47.3928 30.527 47.7983 27.0248 49.4928C21.9169 51.9647 18.195 56.714 17.041 62.2329C16.4119 65.2428 16.4173 79.9138 17.0488 82.9462C17.9461 87.2556 20.5964 91.4551 23.9714 93.9157L25.7699 95.2268L25.7865 96.9451C25.7978 98.0732 25.6757 98.703 25.4322 98.7785C25.2281 98.8415 22.5214 99.5014 19.4175 100.245C11.9501 102.034 9.74025 103.102 6.18016 106.641C4.01517 108.793 3.39173 109.644 2.2378 112.021C0.270629 116.073 -0.0953009 118.294 0.0187551 125.496L0.111129 131.33L0.934471 132.153L1.75781 132.977L14.41 133.06L27.0619 133.144L26.8784 134.063C26.7771 134.569 26.6945 137.502 26.6945 140.581V146.18L17.1961 146.266L7.69794 146.352L6.88143 147.17C5.74205 148.311 5.74205 150.042 6.88172 151.183L7.69853 152H76H144.301L145.118 151.183C146.258 150.042 146.258 148.311 145.119 147.17L144.302 146.352L134.804 146.266L125.305 146.18V140.581C125.305 137.502 125.223 134.569 125.122 134.063L124.938 133.144L137.59 133.06L150.242 132.977L151.066 132.153L151.889 131.33L151.981 125.496C152.095 118.294 151.729 116.073 149.762 112.021C148.608 109.644 147.985 108.793 145.82 106.641C142.26 103.102 140.05 102.034 132.583 100.245C129.479 99.5014 126.772 98.8415 126.568 98.7785C126.324 98.703 126.202 98.0732 126.213 96.9451L126.23 95.2268L128.029 93.9157C131.355 91.4907 134.087 87.1641 134.956 82.9462C135.583 79.9049 135.585 65.2259 134.959 62.2329C133.805 56.714 130.083 51.9647 124.975 49.4928C121.473 47.7983 119.228 47.3928 114.493 47.5997C109.494 47.8179 105.881 49.1938 102.473 52.1769C101.004 53.4631 100.905 53.5041 100.745 52.8942C100.652 52.5384 100.118 51.2894 99.5567 50.1188C96.7716 44.3027 91.4706 39.3301 85.6582 37.0809C81.5638 35.4966 77.9568 34.9999 73.3595 35.3872ZM80.7072 41.7672C86.1745 42.9077 91.3266 47.0046 93.9297 52.2819C95.3667 55.1951 96.1835 58.2231 96.1924 60.6724L96.1974 62.0843H94.9149C93.2032 62.0843 90.9241 61.3804 89.6936 60.4721C89.1426 60.0654 88.1755 59.0447 87.5443 58.2041L86.3966 56.6754L87.6141 55.2929C88.2836 54.5323 89.027 53.5327 89.2662 53.071C90.3464 50.985 88.2768 48.5434 85.9285 49.1332C85.5082 49.2387 83.8996 50.5968 82.3542 52.1511C75.8161 58.7261 67.872 62.0828 58.847 62.084L55.8026 62.0843L55.8076 60.6724C55.8165 58.2282 56.6322 55.1972 58.0593 52.3039C61.0806 46.1786 66.9982 42.0434 73.7723 41.3234C76.2522 41.0601 77.7863 41.1582 80.7072 41.7672ZM40.3694 53.8882C43.6702 54.7508 46.8097 57.2018 48.2449 60.036C49.1062 61.7371 49.8622 64.4732 49.8622 65.8902V66.8961L48.3028 66.7058C44.4748 66.2392 43.0782 65.8105 39.3999 63.973C37.9745 63.2614 36.5342 62.6788 36.1992 62.6788C35.8641 62.6788 34.4239 63.2614 32.9985 63.973C29.3202 65.8105 27.9236 66.2392 24.0956 66.7058L22.5362 66.8961V65.8902C22.5362 64.4732 23.2921 61.7371 24.1535 60.036C25.5581 57.2619 28.7 54.7733 31.8924 53.9066C33.867 53.3707 38.3514 53.3608 40.3694 53.8882ZM119.971 53.8882C123.272 54.7508 126.411 57.2018 127.847 60.036C128.708 61.7371 129.464 64.4732 129.464 65.8902V66.8961L127.904 66.7058C124.076 66.2392 122.68 65.8105 119.002 63.973C117.576 63.2614 116.136 62.6788 115.801 62.6788C115.466 62.6788 114.026 63.2614 112.6 63.973C108.922 65.8105 107.525 66.2392 103.697 66.7058L102.138 66.8961V65.8902C102.138 64.4732 102.894 61.7371 103.755 60.036C105.16 57.2619 108.302 54.7733 111.494 53.9066C113.469 53.3707 117.953 53.3608 119.971 53.8882ZM84.6103 63.8678C87.3115 66.5655 90.7937 68.0291 94.5109 68.0291H96.2637L96.1175 74.3455C95.9539 81.405 95.7353 82.479 93.6469 86.4828C92.8631 87.9851 91.7828 89.3979 90.2555 90.9168C87.7314 93.4273 85.668 94.7542 82.4855 95.914C80.4996 96.6375 79.9254 96.7079 76 96.7079C72.0746 96.7079 71.5004 96.6375 69.5145 95.914C63.3024 93.6505 58.6834 88.8361 56.6161 82.4701C56.1326 80.9818 56.0031 79.552 55.8834 74.3869L55.7375 68.1121L60.1513 67.9522C64.7756 67.7848 67.4093 67.3392 71.1995 66.0831C73.9485 65.1721 78.2764 63.0703 80.3068 61.6607L81.7919 60.6296L82.3827 61.4313C82.7076 61.8721 83.7101 62.9686 84.6103 63.8678ZM37.9169 69.9264C40.6907 71.3291 46.5813 72.785 49.4832 72.785C49.9596 72.785 50.0142 79.0348 49.5589 81.4374C48.6441 86.2649 45.0427 90.1633 40.3694 91.3846C38.2617 91.9354 34.2142 91.9262 32.0522 91.3656C27.3269 90.1401 23.7602 86.2967 22.8395 81.4374C22.3841 79.0348 22.4388 72.785 22.9152 72.785C25.7963 72.785 32.3046 71.1481 34.7141 69.8171C36.0572 69.0754 36.2467 69.082 37.9169 69.9264ZM117.518 69.9264C120.292 71.3291 126.183 72.785 129.085 72.785C129.561 72.785 129.616 79.0348 129.161 81.4374C128.248 86.2534 124.636 90.1499 119.961 91.362C117.787 91.9259 113.743 91.9366 111.631 91.3846C107.13 90.2085 103.805 86.7934 102.581 82.0908C102.002 79.8686 101.954 72.785 102.517 72.785C105.398 72.785 111.906 71.1481 114.316 69.8171C115.659 69.0754 115.848 69.082 117.518 69.9264ZM57.0518 94.6504C58.0647 95.7339 59.7348 97.2213 60.7637 97.9561L62.6341 99.2919V101.346C62.6341 102.476 62.5824 103.401 62.5188 103.401C62.4555 103.401 61.5176 102.986 60.4346 102.479C59.3517 101.972 56.2959 101.028 53.6441 100.381C50.9923 99.7348 48.3215 99.0743 47.7087 98.9138L46.5949 98.6222V96.85C46.5949 95.8757 46.7024 95.0782 46.834 95.0782C47.3737 95.0782 51.0722 91.7351 51.9579 90.4468L52.9108 89.0608L54.0605 90.8707C54.6929 91.8662 56.039 93.567 57.0518 94.6504ZM101.15 91.7999C101.668 92.3884 102.831 93.4002 103.734 94.0485L105.377 95.2268L105.391 96.9243L105.405 98.6222L104.291 98.9138C103.679 99.0743 101.008 99.7348 98.3559 100.381C95.7041 101.028 92.6483 101.972 91.5654 102.479C90.4825 102.986 89.5445 103.401 89.4812 103.401C89.4176 103.401 89.3659 102.476 89.3659 101.346V99.2919L91.2556 97.9424C93.5596 96.2969 96.6537 93.004 98.0122 90.7509L99.0191 89.0813L99.6132 89.9053C99.9399 90.3586 100.631 91.2111 101.15 91.7999ZM40.6545 99.203C40.6545 101.581 37.1491 114.99 36.3584 115.637C36.0257 115.909 35.7278 116.106 35.6963 116.074C35.6648 116.044 34.7625 112.602 33.6914 108.427C32.4618 103.635 31.7439 100.241 31.7439 99.2205V97.6047H36.1992H40.6545V99.203ZM120.256 99.2205C120.256 100.241 119.538 103.635 118.309 108.427C117.238 112.602 116.333 116.046 116.299 116.08C116.265 116.114 115.96 115.917 115.621 115.642C114.824 114.995 111.346 101.621 111.346 99.203V97.6047H115.801H120.256V99.2205ZM70.8021 102.355C71.8272 102.602 74.0355 102.785 76 102.785C77.9645 102.785 80.1729 102.602 81.1979 102.355C82.178 102.118 83.0801 101.922 83.2028 101.919C83.3254 101.917 83.4258 103.352 83.4261 105.11C83.4264 108.226 83.3364 108.656 79.7894 122.499C77.789 130.305 76.0847 136.691 76.0018 136.689C75.9192 136.688 74.2096 130.234 72.2026 122.347C68.6859 108.527 68.554 107.898 68.5641 104.961C68.5697 103.286 68.6749 101.917 68.7972 101.919C68.9196 101.922 69.822 102.118 70.8021 102.355ZM28.7148 112.987C29.8943 117.606 30.8582 121.507 30.8561 121.656C30.8543 121.806 30.2849 123.108 29.5905 124.549L28.3281 127.17L17.0793 127.175L5.83086 127.18L5.97017 122.647C6.09224 118.671 6.20451 117.867 6.88499 116.105C8.29614 112.45 10.6444 109.819 14.02 108.11C15.2945 107.464 24.0011 105.009 26.4094 104.616C26.4979 104.602 27.5351 108.368 28.7148 112.987ZM51.2867 105.925C55.3749 106.89 57.4062 107.47 56.9907 107.555C56.554 107.644 45.4475 110.529 44.8532 110.708C44.2591 110.887 44.1772 110.832 44.3209 110.355C44.4142 110.045 44.781 108.618 45.1357 107.183C45.6546 105.085 45.8749 104.602 46.262 104.714C46.5269 104.791 48.7878 105.336 51.2867 105.925ZM106.984 107.63C107.403 109.301 107.705 110.71 107.654 110.761C107.604 110.811 106.443 110.529 105.073 110.135C103.704 109.74 100.979 109.051 99.0191 108.603C97.0588 108.155 95.3474 107.69 95.2158 107.57C95.0845 107.45 95.5523 107.196 96.2554 107.006C97.6442 106.632 105.734 104.653 106.037 104.614C106.139 104.601 106.565 105.958 106.984 107.63ZM131.305 106.048C136.719 107.35 138.923 108.291 141.13 110.238C142.962 111.856 144.149 113.604 145.115 116.105C145.795 117.867 145.908 118.671 146.03 122.647L146.169 127.18L134.921 127.175L123.672 127.17L122.41 124.549C121.715 123.108 121.144 121.806 121.14 121.656C121.137 121.507 122.101 117.606 123.284 112.987C125.024 106.192 125.521 104.616 125.89 104.723C126.14 104.796 128.577 105.392 131.305 106.048ZM63.7915 113.433C63.9508 114.046 65.4329 119.831 67.0852 126.289C68.7372 132.746 70.1624 138.297 70.2515 138.624C70.3409 138.951 65.2582 134.072 58.9566 127.783C52.655 121.493 47.5994 116.247 47.7218 116.125C47.955 115.891 62.1137 112.385 62.9937 112.343C63.3404 112.326 63.5943 112.673 63.7915 113.433ZM96.5589 114.117C100.689 115.106 104.166 116.013 104.284 116.132C104.404 116.25 99.3607 121.49 93.0787 127.775L81.6565 139.203L84.1886 129.253C88.0371 114.131 88.5307 112.318 88.8001 112.318C88.9371 112.318 92.4285 113.128 96.5589 114.117ZM55.2085 132.679L68.7206 146.204H50.6778H32.6349V140.582C32.6349 132.804 33.3228 129.605 35.9452 125.188C36.8663 123.637 40.9762 119.155 41.4772 119.155C41.5978 119.155 47.7771 125.241 55.2085 132.679ZM112.9 121.332C115.205 123.658 116.608 125.767 117.779 128.67C118.998 131.689 119.365 134.447 119.365 140.582V146.204H101.322H83.2794L96.7915 132.679C104.223 125.241 110.402 119.155 110.523 119.155C110.643 119.155 111.713 120.134 112.9 121.332Z" fill="white"/>
</svg>
