<svg width="100" height="100" viewBox="0 0 152 145" fill="none" xmlns="http://www.w3.org/2000/svg">
<path fill-rule="evenodd" clip-rule="evenodd" d="M11.248 0.304067C6.19987 1.49571 1.70616 6.51221 0.489313 12.3144C-0.158286 15.4038 -0.165409 100.728 0.481893 103.787C1.7572 109.814 6.28179 114.74 11.5581 115.845C13.517 116.256 31.7426 116.295 32.8036 115.891C34.6099 115.203 35.1409 112.551 33.7507 111.158L32.9743 110.38L22.667 110.231C12.7515 110.088 12.3132 110.058 11.1346 109.427C9.47229 108.536 7.62477 106.362 6.80473 104.332L6.12716 102.654V74.1254V45.5972L70.605 45.5224L135.083 45.4472V60.6036V75.7598L133.97 75.7664C132.633 75.7741 130.481 76.7012 129.402 77.7339L128.618 78.484L126.582 77.6008C125.463 77.1152 124.258 76.6305 123.905 76.5241C123.396 76.3705 123.221 76.013 123.054 74.7824C122.701 72.17 121.429 70.2961 119.247 69.1725C117.803 68.4293 112.618 68.1042 110.019 68.5939C106.768 69.2067 104.637 71.4675 104.309 74.6514L104.145 76.2454L101.505 77.3624L98.8655 78.4795L97.9439 77.7033C96.3656 76.3735 95.2713 75.9542 93.3838 75.9551C92.1527 75.9557 91.2368 76.1482 90.4158 76.5791C88.8176 77.4177 83.8752 82.4702 83.305 83.8481C82.3695 86.1084 83.0269 89.377 84.7884 91.2227L85.5069 91.9754L84.3616 94.6401L83.2163 97.3045L81.6222 97.4641C79.8014 97.6465 78.5884 98.221 77.4651 99.4325C75.8882 101.133 75.6172 102.071 75.4837 106.294L75.359 110.231H66.1701H56.9811L56.1136 111.1C54.6576 112.558 55.0591 114.883 56.9331 115.843C57.3812 116.072 61.5547 116.175 70.4418 116.175H83.3024L84.4346 118.857L85.5669 121.539L84.689 122.54C82.8064 124.687 82.3737 127.774 83.6152 130.2C84.3916 131.717 89.1085 136.29 90.5921 136.964C92.4355 137.801 94.5412 137.749 96.4018 136.821C97.2281 136.409 98.1259 135.826 98.3971 135.526C98.8735 134.999 98.9818 135.017 101.521 136.053L104.152 137.125L104.471 139.048C104.884 141.541 105.958 143.081 108.04 144.17C109.54 144.955 109.838 145 113.491 145C115.616 145 117.864 144.847 118.486 144.661C120.996 143.908 122.827 141.507 123.13 138.573C123.22 137.695 123.442 136.975 123.624 136.973C123.805 136.971 125.017 136.504 126.317 135.936L128.681 134.903L129.582 135.776C131.469 137.605 134.654 138.119 137.012 136.976C138.561 136.226 143.537 131.174 144.132 129.748C145.096 127.439 144.518 124.343 142.788 122.553L141.916 121.651L142.948 119.284C143.515 117.983 143.981 116.751 143.983 116.546C143.985 116.318 144.402 116.175 145.065 116.175C146.97 116.175 148.521 115.514 149.931 114.103C151.688 112.343 152 111.188 152 106.442C152 102.784 151.955 102.486 151.171 100.984C150.037 98.81 148.439 97.7179 146.05 97.4837L144.219 97.3045L143.539 95.4894C143.165 94.4912 142.648 93.2678 142.392 92.7706C141.968 91.9498 141.968 91.8313 142.39 91.48C142.646 91.2672 143.242 90.4179 143.715 89.5927C145.286 86.8513 144.804 83.8633 142.355 81.1484L141.342 80.026L141.253 46.6159L141.163 13.2059L140.352 10.8054C138.982 6.74965 136.07 3.03326 133.057 1.49393C129.947 -0.0944354 133.075 -0.0204403 70.3943 0.0116538C37.9859 0.0285924 11.8689 0.157563 11.248 0.304067ZM129.245 6.39988C131.049 7.01531 132.976 8.90946 134.069 11.1406L134.935 12.9088L135.02 26.207L135.106 39.5053H70.5252H5.94463L6.03931 26.5042C6.13161 13.7857 6.14853 13.4665 6.80829 11.825C7.90316 9.09965 10.095 6.93745 12.5064 6.20285C12.9154 6.07834 39.036 5.96482 70.5522 5.95086C122.292 5.92768 127.989 5.97136 129.245 6.39988ZM25.2702 13.2184C23.433 13.7245 20.9486 15.3045 20.0265 16.5535C18.3493 18.8248 18.0003 19.9142 18.0041 22.8639C18.0074 25.2026 18.1246 25.9235 18.688 27.0647C19.7828 29.283 21.2611 30.776 23.4135 31.8369C25.1473 32.6915 25.6839 32.8119 27.779 32.8152C29.7805 32.8184 30.4557 32.6838 31.948 31.9849C34.2443 30.9091 36.315 28.7214 37.1531 26.4858C38.0236 24.1637 37.8936 20.6797 36.8575 18.5627C34.7645 14.2864 29.7648 11.9804 25.2702 13.2184ZM51.3667 13.1489C46.2216 14.6047 43.0741 19.4881 44.0039 24.5726C44.621 27.9481 46.6433 30.5219 49.8682 32.036C52.2254 33.1426 55.5542 33.1367 57.9611 32.0217C60.0897 31.0357 61.915 29.212 62.9187 27.0682C63.5755 25.6653 63.7046 24.9753 63.7046 22.8639C63.7046 20.7002 63.5856 20.0955 62.8754 18.6471C60.786 14.3872 55.6545 11.9355 51.3667 13.1489ZM86.9274 13.0829C80.836 14.5203 77.3763 21.2782 79.8572 26.8935C80.6737 28.7416 82.9382 31.0393 84.8881 31.9982L86.5576 32.819H102.287C118.012 32.819 118.018 32.8187 119.478 32.1447C121.715 31.1118 123.297 29.6423 124.397 27.5767C126.815 23.033 125.464 17.5871 121.183 14.6258C118.59 12.8324 117.806 12.7569 102.151 12.7899C94.3908 12.8065 87.5402 12.9382 86.9274 13.0829ZM30.3676 19.7909C32.1917 21.4434 32.2593 24.1346 30.5172 25.733C29.1478 26.9898 27.7238 27.2575 26.2517 26.5348C23.4983 25.1836 22.9873 21.8125 25.2277 19.7823C26.4698 18.6566 29.1211 18.661 30.3676 19.7909ZM56.433 19.8491C58.2146 21.1766 58.301 24.0249 56.6113 25.7167C55.3007 27.029 53.8693 27.273 52.2072 26.4673C50.6271 25.7015 49.9039 24.531 49.9039 22.7394C49.9039 21.6066 50.0718 21.1858 50.8732 20.3103C52.3877 18.6554 54.5863 18.4729 56.433 19.8491ZM117.828 19.565C119.649 20.8648 120.148 23.2181 118.976 24.9744C117.592 27.0483 117.791 27.0233 102.696 27.0236C95.2479 27.0239 88.7218 26.9375 88.1929 26.8317C86.9024 26.5731 85.3481 24.9675 85.0985 23.6347C84.8507 22.3126 85.7381 20.1136 86.735 19.5796C88.1899 18.7998 89.3705 18.7425 102.881 18.7965L116.83 18.8521L117.828 19.565ZM47.0274 62.6874C46.6697 62.8315 46.1625 63.2776 45.9001 63.6784C45.3463 64.5245 39.4826 88.7226 39.4191 90.4236C39.3838 91.3659 39.5455 91.7175 40.3412 92.4295C42.0508 93.959 44.418 93.318 45.1276 91.1335C45.815 89.018 51.1269 66.3369 51.1382 65.4692C51.1545 64.2276 50.6633 63.3798 49.613 62.836C48.6469 62.3358 47.9919 62.2981 47.0274 62.6874ZM27.1685 65.1465C25.911 65.873 17.564 75.5785 17.2099 76.7256C16.6024 78.6946 17.1381 79.6444 21.8728 84.9881C24.2546 87.676 26.4755 90.1095 26.8082 90.3953C27.1768 90.7121 27.9012 90.9154 28.6607 90.9154C30.3697 90.9154 31.5028 89.7659 31.5028 88.0323C31.5028 86.895 31.2532 86.5342 27.6445 82.4574C25.5225 80.0598 23.7862 78.0017 23.7862 77.8834C23.7862 77.7651 24.5543 76.8014 25.4928 75.7417C31.7022 68.7309 31.5028 68.9975 31.5028 67.7116C31.5028 65.4496 29.1024 64.0291 27.1685 65.1465ZM60.0526 65.5042C59.0035 66.3883 58.718 67.5595 59.2551 68.7764C59.4715 69.2667 61.2612 71.4732 63.2319 73.6796C65.2028 75.8861 66.8165 77.7761 66.818 77.8792C66.8198 77.9826 65.1423 79.9549 63.0903 82.2624C58.615 87.2953 58.1653 88.4082 59.9045 90.1496C60.4833 90.7294 60.9661 90.913 61.8901 90.9059C62.5617 90.9008 63.3242 90.7335 63.5847 90.5344C64.8942 89.5336 73.0966 79.9469 73.3806 79.0854C73.9956 77.2198 73.5373 76.2727 70.1447 72.3985C68.4002 70.4063 66.0989 67.8739 65.0307 66.7705C63.3342 65.0187 62.952 64.7646 62.0097 64.7646C61.2929 64.7646 60.6358 65.013 60.0526 65.5042ZM116.979 76.7256C116.98 78.1811 117.148 79.2174 117.499 79.9202C117.969 80.8628 118.282 81.0464 120.837 81.8791C122.388 82.3846 124.755 83.3542 126.098 84.0336C127.441 84.7132 128.847 85.2692 129.223 85.2692C130.07 85.2692 130.97 84.679 132.785 82.932L134.196 81.5733L136.42 83.7851C137.644 85.0018 138.644 86.1393 138.644 86.3132C138.644 86.4867 137.978 87.2858 137.164 88.089C136.349 88.8923 135.536 89.9945 135.357 90.5386C135.058 91.4449 135.156 91.7819 136.519 94.5646C137.338 96.235 138.283 98.5461 138.619 99.7006C139.5 102.727 140.099 103.195 143.336 103.39L145.916 103.545L146.001 106.473C146.056 108.376 145.966 109.546 145.742 109.816C145.502 110.106 144.706 110.231 143.1 110.231C140.012 110.231 139.562 110.601 138.503 114.012C138.057 115.447 137.092 117.78 136.357 119.198C135.13 121.567 135.049 121.857 135.352 122.779C135.534 123.33 136.349 124.438 137.164 125.242C137.978 126.045 138.644 126.844 138.644 127.017C138.644 127.419 134.429 131.627 134.027 131.627C133.862 131.627 133.007 130.897 132.127 130.005C129.909 127.756 129.389 127.697 126.228 129.339C124.814 130.074 122.492 131.03 121.069 131.463C117.667 132.5 117.275 132.977 117.275 136.089C117.275 137.696 117.15 138.494 116.861 138.734C116.591 138.958 115.423 139.049 113.522 138.993L110.598 138.908L110.443 136.325C110.249 133.089 109.781 132.489 106.758 131.593C105.605 131.251 103.331 130.304 101.705 129.488C98.9792 128.121 98.6669 128.03 97.6973 128.321C97.1091 128.497 95.9973 129.295 95.1743 130.132C94.3649 130.954 93.5609 131.627 93.3876 131.627C93.214 131.627 92.0936 130.641 90.8975 129.436C88.4932 127.012 88.441 126.689 90.2458 125.402C91.3154 124.64 92.345 123.024 92.345 122.109C92.345 121.733 91.7576 120.278 91.0397 118.875C90.3218 117.472 89.4376 115.32 89.0749 114.095C88.1133 110.845 87.5928 110.414 84.4005 110.231L81.8089 110.083L81.7249 106.74L81.6409 103.396L83.8024 103.396C85.2665 103.396 86.2985 103.228 87.0007 102.876C87.9448 102.403 88.1317 102.077 89.0948 99.2361C89.6765 97.52 90.6459 95.1931 91.2486 94.0651C91.8517 92.9373 92.345 91.7605 92.345 91.4503C92.345 90.5531 91.6083 89.3844 90.1428 87.9562C89.3952 87.2275 88.7835 86.4953 88.7835 86.3292C88.7835 85.8359 92.7335 82.0003 93.2413 82.0003C93.4983 82.0003 94.2364 82.5462 94.8817 83.2134C96.2386 84.6166 97.3527 85.2692 98.3912 85.2692C98.7946 85.2692 100.261 84.6743 101.649 83.9471C103.037 83.2199 105.152 82.3379 106.347 81.9867C107.827 81.5522 108.78 81.072 109.336 80.4812C110.083 79.6872 110.152 79.4165 110.152 77.2905C110.152 76.0127 110.241 74.8781 110.35 74.7694C110.459 74.6603 111.995 74.5711 113.764 74.5711H116.979L116.979 76.7256ZM109.262 89.0046C104.275 90.3101 99.6282 94.1088 97.4445 98.6646C95.9192 101.847 95.4942 104.07 95.6732 107.929C95.7854 110.35 95.9851 111.401 96.6473 113.054C98.823 118.489 102.644 122.175 108.124 124.123C110.912 125.114 115.781 125.235 118.611 124.383C124.795 122.523 129.573 117.736 131.404 111.569C132.204 108.873 132.146 104.443 131.274 101.613C129.376 95.4517 124.108 90.4052 118.093 88.985C115.761 88.4346 111.402 88.4441 109.262 89.0046ZM118.892 95.6193C126.521 99.1939 128.378 109.008 122.586 115.14C116.702 121.369 106.633 119.822 102.822 112.103C101.9 110.235 101.714 109.521 101.605 107.437C101.445 104.385 101.984 102.357 103.598 99.9428C105.06 97.7559 107.294 96.0353 109.828 95.1453C112.658 94.1513 116.149 94.3337 118.892 95.6193ZM43.3412 110.677C41.6198 111.614 41.526 114.079 43.1593 115.455C43.9327 116.106 44.2877 116.21 45.2887 116.076C46.9241 115.856 47.8263 114.785 47.8263 113.064C47.8263 111.984 47.6755 111.643 46.9131 111.001C45.8844 110.134 44.5598 110.014 43.3412 110.677Z" fill="white"/>
</svg>
