<svg width="100" height="100" viewBox="0 0 137 152" fill="none" xmlns="http://www.w3.org/2000/svg">
<path fill-rule="evenodd" clip-rule="evenodd" d="M61.1019 0.428366C48.3817 1.85645 35.8576 7.10333 25.9445 15.1576C12.1792 26.3418 3.00886 43.2464 1.25331 60.6731C1.03198 62.8697 0.947834 69.4618 1.00887 79.7787L1.1022 95.5307L2.23375 97.9084C2.85597 99.2161 3.74012 100.898 4.19849 101.645L5.03196 103.004L3.44797 104.566C1.71435 106.276 0.507836 108.448 0.115838 110.566C-0.20979 112.324 0.180134 115.541 0.922353 117.224C1.98635 119.637 5.19552 124.783 6.41655 126.034C9.47461 129.167 14.5765 130.074 19.028 128.276C19.3377 128.151 19.7875 128.592 20.5095 129.728C22.828 133.374 26.8218 135.693 31.3243 136.007C34.5121 136.23 36.7817 135.618 40.5094 133.532C44.5933 131.245 46.1598 130.033 47.6439 128.011C49.3446 125.694 50.1663 123.408 50.3574 120.462C50.5414 117.624 50.1361 115.602 48.8735 113.066C47.2578 109.82 31.4271 82.4836 30.2372 80.884C28.2484 78.2116 24.5255 76.022 21.1907 75.5634L19.8503 75.3792L20.0046 68.3657C20.1735 60.6865 20.5439 58.1632 22.2778 52.8869C26.9483 38.6715 38.3797 26.7906 51.9864 22.0097C55.4169 20.8043 56.1781 20.3825 56.5997 19.4541C57.3396 17.8254 56.8018 16.3052 55.219 15.552C53.9331 14.9398 53.1011 15.1199 48.3198 17.0458C41.3974 19.8339 35.8049 23.5835 30.1116 29.2536C25.3836 33.9622 22.4716 37.9992 19.6337 43.7796C17.2446 48.6448 16.0731 52.0422 14.9724 57.295C14.2796 60.6015 14.1641 61.9766 14.0138 68.7042L13.8429 76.3537L10.4355 78.2549L7.0281 80.1562L6.93951 72.0915C6.84707 63.666 7.0681 60.4603 8.0998 55.2592C9.87224 46.3233 14.3253 36.8906 20.3063 29.4022C36.5675 9.04261 63.5413 0.924999 87.9166 9.05539C110.34 16.5343 126.426 35.6807 129.982 59.1229C130.478 62.3945 131.012 80.2245 130.613 80.2245C130.498 80.2245 129.155 79.5014 127.629 78.6178C126.103 77.7339 124.577 76.9226 124.237 76.8144C123.655 76.6292 123.62 76.4051 123.616 72.8488C123.605 64.3376 122.805 57.6841 121.113 52.0401C117.324 39.3958 108.444 27.9524 97.0769 21.0652C92.2161 18.1202 84.9729 15.1362 82.6849 15.1362C81.7599 15.1362 81.303 15.3345 80.5975 16.0421C79.7969 16.8452 79.7134 17.0898 79.8612 18.1966C80.0796 19.8303 80.9291 20.538 83.668 21.3687C86.2917 22.1643 91.8508 24.7729 94.5474 26.4738C105.804 33.5735 113.86 45.2073 116.538 58.2297C117.21 61.5005 117.767 68.7895 117.636 72.6205L117.546 75.2701L115.731 75.6407C112.065 76.3891 108.837 78.4939 106.699 81.5296C105.69 82.9612 89.7145 110.553 88.4179 113.103C87.3039 115.293 86.7978 117.903 86.9842 120.496C87.3691 125.847 89.8144 129.333 95.6114 132.797C99.6108 135.187 101.284 135.824 104.076 136.019C109.189 136.377 114.186 133.954 116.819 129.837C117.67 128.507 117.883 128.343 118.556 128.497C118.978 128.595 120.09 128.83 121.028 129.021L122.731 129.369L122.725 132.363C122.714 138.136 121.977 140.631 119.537 143.152C118.84 143.873 117.507 144.821 116.574 145.259L114.879 146.056L97.2043 146.141L79.5291 146.226L79.4242 140.791C79.3235 135.576 79.2858 135.284 78.4924 133.573C77.4118 131.244 75.4005 129.219 73.1345 128.18C71.6053 127.479 70.933 127.35 68.8056 127.35C66.6782 127.35 66.0059 127.479 64.4767 128.18C62.2118 129.219 60.2009 131.242 59.1168 133.573C58.2892 135.352 58.2868 135.375 58.1905 142.682L58.0939 150.008L58.981 151.004L59.8682 152H87.6701H115.472L117.477 151.305C121.315 149.976 124.863 146.949 126.577 143.541C128.115 140.484 128.398 139.017 128.576 133.187L128.742 127.748L130.551 125.905C131.8 124.634 132.971 122.957 134.33 120.496C136.706 116.193 136.992 115.343 137 112.554C137.009 109.164 135.665 106.233 133.076 104.001L132.215 103.258L133.689 100.732C136.632 95.6867 136.511 96.6535 136.493 78.2927C136.478 63.295 136.434 61.9698 135.828 58.0642C134.591 50.1026 131.826 41.7945 128.285 35.4066C114.777 11.0312 88.503 -2.64772 61.1019 0.428366ZM67.4299 13.3367C65.7733 14.0434 65.3049 16.5566 66.5576 18.0174C67.5632 19.1898 69.6183 19.2112 70.7653 18.0611C71.8382 16.9846 71.8687 15.1018 70.8302 14.0598C70.0329 13.2603 68.4157 12.9161 67.4299 13.3367ZM22.7892 82.2557C23.4725 82.607 24.4725 83.3535 25.0114 83.9144C26.0597 85.0063 43.6122 115.356 44.174 117.048C45.0904 119.809 44.201 123.276 42.0238 125.431C40.8522 126.591 36.0244 129.401 34.4028 129.867C31.7216 130.639 28.5098 129.758 26.5243 127.706C25.1827 126.32 8.01062 96.779 7.24944 94.5481C6.24648 91.6076 7.35195 87.6158 9.69268 85.7258C10.9638 84.6999 14.2488 82.7856 16.2038 81.9317C17.8343 81.2196 21.0855 81.3795 22.7892 82.2557ZM120.934 81.8523C122.897 82.5472 127.616 85.456 128.52 86.5286C130.428 88.793 131.059 92.4178 129.991 94.9809C129.025 97.2991 111.875 126.752 110.946 127.688C109.225 129.42 107.771 129.996 105.102 130.002C102.781 130.007 102.669 129.972 99.7684 128.372C94.487 125.458 92.4864 122.644 92.8923 118.699C93.095 116.727 92.8535 117.187 102.793 99.8402C111.818 84.0882 112.67 82.8753 115.388 81.9106C117.037 81.3254 119.375 81.3007 120.934 81.8523ZM51.7112 93.1272C51.0208 93.7228 50.8798 94.0803 50.8798 95.2335C50.8798 97.0622 51.9153 98.057 53.8187 98.057C56.523 98.057 57.7642 95.0873 55.8587 93.1759C54.8163 92.1304 52.8928 92.1078 51.7112 93.1272ZM66.8207 92.9367C65.3229 94.1175 65.3567 96.5828 66.8841 97.5868C67.7807 98.1761 69.6625 98.1952 70.4767 97.623C72.7819 96.0033 71.5843 92.402 68.7449 92.4166C67.9967 92.4204 67.2038 92.635 66.8207 92.9367ZM81.4384 93.1935C80.8408 93.7929 80.6574 94.2723 80.6574 95.2335C80.6574 97.0512 81.7178 98.057 83.6343 98.057C84.8506 98.057 85.1569 97.9286 85.8162 97.1425C86.3071 96.5575 86.5833 95.8698 86.5833 95.2335C86.5833 94.5972 86.3071 93.9094 85.8162 93.3245C85.1569 92.5384 84.8506 92.41 83.6343 92.41C82.5009 92.41 82.0645 92.5658 81.4384 93.1935ZM12.4862 116.012C15.4361 121.163 16.2935 122.887 16.0038 123.084C15.7931 123.228 14.8559 123.298 13.9214 123.24C12.5715 123.155 11.9982 122.952 11.1309 122.248C9.92972 121.272 6.46366 115.552 5.973 113.735C5.58989 112.317 6.02129 110.605 7.07907 109.344C7.71314 108.588 7.92232 108.49 8.22039 108.81C8.42098 109.026 10.3407 112.267 12.4862 116.012ZM130.116 109.538C130.983 110.644 131.35 112.254 131.043 113.604C130.695 115.134 127.242 121.13 126.205 122.006C125.097 122.941 123.332 123.443 122.019 123.196L120.953 122.995L121.472 122.018C123.11 118.932 129.108 108.756 129.288 108.756C129.406 108.756 129.779 109.108 130.116 109.538ZM71.5662 134.106C73.3048 135.436 73.5463 136.346 73.5463 141.568V146.204H68.8056H64.0649V141.588C64.0649 135.795 64.3644 134.943 66.8803 133.579C68.1508 132.89 70.2912 133.131 71.5662 134.106Z" fill="white"/>
</svg>
